<svg version="1.1" id="Layer_1" xmlns="http://www.w3.org/2000/svg" xmlns:xlink="http://www.w3.org/1999/xlink" x="0px" y="0px" viewBox="0 0 896.4 396.7"
	 style="enable-background:new 0 0 896.4 396.7;" xml:space="preserve">
<style type="text/css">
	.st0{fill-rule:evenodd;clip-rule:evenodd;fill:#1976D2;}
	.st1{fill-rule:evenodd;clip-rule:evenodd;fill:#FBD9A5;}
	.st2{fill-rule:evenodd;clip-rule:evenodd;fill:#E3BC81;}
	.st3{fill-rule:evenodd;clip-rule:evenodd;fill:#FFE0B2;}
	.st4{fill-rule:evenodd;clip-rule:evenodd;fill:#424242;}
	.st5{fill-rule:evenodd;clip-rule:evenodd;fill:#FFFFFF;}
	.st6{fill-rule:evenodd;clip-rule:evenodd;fill:#393636;}
	.st7{fill-rule:evenodd;clip-rule:evenodd;fill:#90A4AE;}
	.st8{fill-rule:evenodd;clip-rule:evenodd;fill:#607D8B;}
	.st9{fill-rule:evenodd;clip-rule:evenodd;fill:#E3DBDB;}
	.st10{fill-rule:evenodd;clip-rule:evenodd;fill:#303030;}
	.st11{fill:#808080;}
</style>
<metadata>
	<sfw  xmlns="&ns_sfw;">
		<slices></slices>
		<sliceSourceBounds  bottomLeftOrigin="true" height="396.7" width="896.4" x="109.8" y="0"></sliceSourceBounds>
	</sfw>
</metadata>
<path class="st0" d="M413.1,126.5c2.8-1.9,4.3-0.6,6,0l-4.5,14.9c0,0-3.8-5.8-3.5-7.2C411.4,132.8,413.1,126.5,413.1,126.5
	L413.1,126.5z"/>
<path class="st0" d="M475.6,126.5c-3.6-1.6-4.6-0.6-6,0l4.5,14.9c0,0,3.8-5.8,3.5-7.2C477.4,132.8,475.6,126.5,475.6,126.5
	L475.6,126.5z"/>
<path class="st1" d="M416.8,113.1l-2.5,45.5l36.4,51.5l39.7-54.6l-14.8,0.5l-4.7-43.5l-25.4,22.1L416.8,113.1z"/>
<path class="st2" d="M471.6,115.8l0.3,8.8c-2.9,6.9-7,13-11.9,18.4c-3.8,4.1-9.8,8.4-15.7,8.5c-6.1-0.1-10.6-5-16.1-8.3
	c-5.2-6-8.9-12.7-11.9-19.8l1.1-8.3c0,0,8.5,9.1,8.5,9.9c0,0.8,3.5,4.4,5.7,6.9c2.1,2.5-1,3.5,4.9,4.5s8.5,1.8,10.9,1.4
	c2.4-0.4,0.7,1.3,3.1-1.3c2.4-2.5,0.7-0.3,2.7-2.8c2-2.5,0.8-2.1,3.7-4c2.8-1.8,4.2-2.8,5.9-4.5c1.7-1.7,0.6,0.1,2.7-2.7
	c2.1-2.8,0.7-1.8,2.1-2.8c1.4-1,2.4-1.8,2.4-1.8L471.6,115.8z"/>
<path class="st3" d="M478.2,42.4l1.2,24.7c1.1-3.6,4.8-3.3,6.5-1.8c0.6,1.6,0.3,5.6-0.2,10.5c-0.4,3.9-0.7,8.3-2,11.2
	c-1.8,4.3-4.7,6.1-7,8.1c-0.4,9.8-2.6,13.9-3.6,20.7c-2.9,7.8-9.2,14.4-16.9,22.3c-2.6,2-7.7,3.8-10.9,4c-5-0.3-9.4-1.6-13.1-4
	c-7.2-6-11.3-12.9-16.1-20c-2.4-7.7-6-13-7.3-21.1c-4.4-1.6-6.3-5.2-8.6-9.6c-2.5-6.2-1.6-11.5-1.3-17.9c1.5-2.2,2.8-2.9,4.5,0.1
	l-1.7-8.3c-1.8-9.1-2.3-17.6,6.9-21.4l24.3-10.4l36.3-1.3C473.2,32,478.6,34.9,478.2,42.4L478.2,42.4z"/>
<path class="st4" d="M479.4,63.4L474.4,79c-3.1-2.7-19.4-0.2-28.5,1.6l-2.9,1.8l-5.2,0.1l-2.2-2.1c-8.3-0.7-16.9-0.9-26.1-0.5
	l-1.4,1.1l-3.8-13.3c0,0-1.5,0.9-1.4,1.3c0.1,0.4,5.6,18.3,5.6,18.3c0.2,0.8,1.2,1,1.6,1.8c0.3,3.3,2.5,5.5,5.2,7
	c6.5,1.2,12.9,1,19.4,0c2.4-3,3.4-6.4,4.5-9.7h4c1.2,3,2.5,5.9,4.2,8.7c7.9,1.8,15.8,1.6,23.7-1.2c2.2-2.8,2.4-5.4,2.8-7.8l2.4-2.2
	l4.2-18.3L479.4,63.4z"/>
<path class="st5" d="M435.5,84.1l-1.6-1c-7.3-1.7-15.2-1-22.9-0.7c-0.4,4.3,0.8,8.4,4.7,11.6c4.1,0.8,9.9,1.2,17.4-0.4
	C435.8,91,435.9,87.6,435.5,84.1L435.5,84.1z"/>
<path class="st5" d="M445.8,84l1.2-1.3c7.3-1.7,22.5-3.4,24.8-1.8c0,4.7,0.2,8.6-2.9,11.1c-4.1,0.8-12.1,2.5-19.6,1
	C447.1,90.5,445.4,87.5,445.8,84L445.8,84z"/>
<path class="st4" d="M446,79.2c6.4-4.6,17.8-9.2,19.3-8.9c0.9-0.1,4.7,0.3,4.6,0.3l2.1,0.5c0.3,0.5,0.3,1-0.1,1.3
	c-0.3,0.4-1.2,0.6-2.1,0.8l-2.4-0.3c-3.3,0.5-8.3,2.3-11.4,4.8L446,79.2z"/>
<path class="st4" d="M434.2,79c-6.9-3.9-18.7-7.3-20.2-6.9c-0.9,0-4.7,0.6-4.6,0.7l-2,0.6c-0.3,0.5-0.2,1,0.3,1.2
	c0.4,0.3,1.3,0.4,2.1,0.6l2.4-0.5c3.4,0.2,8.5,1.5,11.8,3.6L434.2,79z"/>
<path class="st6" d="M481.7,64l1.4-9.4c1.8-7.4,3-14.6,0.7-19.6c-0.8-6.8-0.2-13.9-9-19.3C464.5,4.8,450.7,0.6,435,0l2.6,3.6
	c-9.6-3-22.5,3.4-34.7,11.1l5.6-1.7c-9.4,5.4-12,14.1-17.3,21.4l1.7-0.4c0.1,6.3,1,12.1,2.7,17.3l0.9-2c0.7,6.1,4,10.5,5.4,18.4
	l1.4,2.3l2-4.7c-0.5-5.4-1-7.2-1.6-10.6c1.6-4.6,3.4-7.9,5.7-9c13.3,3.4,27.3,2.5,41.7-1.3c5.2-4.2,11.8-4.8,17-5.6
	c3.5,3.5,4.9,5.4,6.1,9.3c1.3,4.1,0.9,8.3,2.4,12.4l3.4,6.9L481.7,64z"/>
<path class="st1" d="M478,87c2.1-3.7,3.4-6.2,4.4-6.1c0.9,0.2,2.2-12.1,1.6-11.3c0-2.2-1.2-2.8-1.5-1.5c-0.7,4-2.7,6.2-2.7,6.2
	c0.8,4.8-0.9,8.8-1.8,13L478,87z"/>
<path class="st1" d="M402,72.4c-1.5-0.1-0.8,13.4,0.8,14.1c0.7,0.3,3.8,4,3.8,4C405.6,84.9,403.8,78.6,402,72.4z"/>
<path class="st7" d="M450.7,344.2l-3.2-156l14.8-13.5l1.7-9l14.6-17.3l2.7-13.7l13.1,7.8l18.8,5.7l12.3,7.7l6.5,0.8l15.9,8
	c18.2,14,18,83.2,34.1,119.5c-1.1,9.3-3.1,18.6-5.2,27.9c-9,13.4-23,23.4-34.9,34.9L450.7,344.2z"/>
<path class="st7" d="M455.6,343.4l-8.2-155l-13.3-9.4l-0.1-5.6l-18.1-18.6l-6.9-20.8l-9.8,8.6c-4.4,0.8-10.3,2.5-18.8,5.7l-12,7.9
	l-7-0.8l-15.7,9.4c-22.1,25.5-18,83.2-34.1,119.5c1.1,9.3,3.1,18.6,5.2,27.9c9,13.4,23,23.4,34.9,34.9L455.6,343.4z"/>
<path class="st8" d="M475.6,126.4c-1.1,15.9-6,29.2-15.7,39.1v9.4l-13.1,13.7l15.9-12.2c1.8-3.2,1.4-3.5,2.3-10.1
	c2.9-3.4,5.5-3.1,9.5-2.3l9.6,18.3c0.7-13.2,2-32.4-3.1-47.6L475.6,126.4z"/>
<path class="st8" d="M88.8,327L0,396.7h896.4L812.9,327H88.8L88.8,327z"/>
<path class="st8" d="M345.4,164.9c-0.7,1.3-1.1,2.6-1.2,3.9c9,8.8,15.4,19.3,18.6,31.9l3.2,24.8h2l-3.6-26.4
	C362.5,187.3,354.9,176,345.4,164.9L345.4,164.9z"/>
<path class="st8" d="M547.9,164.9c0.7,1.3,2.1,1.6,2.2,2.9c-9,8.8-18.3,21-21.5,33.6l-1.2,24.1l-3.3,0.6l2.9-26.7
	C528.9,187.5,538.4,176,547.9,164.9L547.9,164.9z"/>
<path class="st8" d="M447.7,187.9l1.9,38.1l-3.1,0.3l-0.6-38.1L447.7,187.9z"/>
<path class="st9" d="M331.3,223h221.2c3.6,0,6.5,2.9,6.5,6.5v120.3c0,3.6-2.9,6.5-6.5,6.5H331.3c-3.6,0-6.5-2.9-6.5-6.5V229.5
	C324.7,225.9,327.7,223,331.3,223z"/>
<path class="st9" d="M324.7,360.7v4.2c0,2.7,3.3,4.9,7.4,4.9h219.4c4.1,0,7.4-2.2,7.4-4.9v-4.2H324.7L324.7,360.7z"/>
<path class="st8" d="M413.2,126.4c1.1,15.9,13.1,33,22.9,42.9l-0.5,8.7l11.7,10.9l-15.7-9.4c-1.8-3.2-1.3-6.1-1.5-8.3
	c-2.9-3.4-6.8-4.4-10.7-3.7c-3.8,7.5-8.3,13.8-11.2,19.4c-0.7-13.2-5.5-37-0.4-52.2L413.2,126.4z"/>
<path class="st10" d="M468.2,38.6c1.9-2.1,9.8,16.8,7.4,17.5c0.8-8.7-3.7-23-8.7-23.5c-20.4-8.5-43.1-1.6-65.3,4.8
	c1.7,2.6,4.6,0.9,7.4,1.6l-9.2,11.1l9.3-4.7c13,4.1,27.4,3.1,42.7-0.7C455.5,42.4,460,40.2,468.2,38.6L468.2,38.6z"/>
<g transform="translate(3.9286 4.5273)">
	<path class="st11" d="M421.7,274.2v6.3l-8.7,4.8l8.7,4.8v6.3l-15.4-8.4v-5.3L421.7,274.2L421.7,274.2z"/>
	<path class="st11" d="M444.2,271.1l-6.5,28.2h-5.3l6.5-28.2H444.2z"/>
	<path class="st11" d="M454.2,296.3V290l8.7-4.8l-8.7-4.8v-6.3l15.4,8.4v5.3L454.2,296.3L454.2,296.3z"/>
</g>
</svg>
